<?xml version="1.0" encoding="UTF-8"?>
<svg id="Calque_1" data-name="Calque 1" xmlns="http://www.w3.org/2000/svg" viewBox="0 0 841.89 317.01">
  <defs>
    <style>
      .cls-1 {
        font-family: Outfit-SemiBold, Outfit;
        font-size: 128.96px;
        font-variation-settings: 'wght' 600;
        font-weight: 600;
      }

      .cls-2, .cls-3, .cls-4 {
        fill: #010101;
      }

      .cls-5 {
        fill: #b78a3c;
      }

      .cls-3 {
        font-family: Outfit-ExtraLight, Outfit;
        font-size: 38.04px;
        font-variation-settings: 'wght' 200;
        font-weight: 200;
      }

      .cls-4 {
        letter-spacing: -.03em;
      }
    </style>
  </defs>
  <text class="cls-3" transform="translate(253.23 263.89)"><tspan x="0" y="0">intelligent stable manager</tspan></text>
  <g>
    <text class="cls-1" transform="translate(247.99 195.88)"><tspan class="cls-2" x="0" y="0">ho</tspan><tspan class="cls-4" x="145.85" y="0">r</tspan><tspan class="cls-2" x="198.21" y="0">s</tspan><tspan class="cls-5" x="255.46" y="0">place</tspan></text>
    <g>
      <path class="cls-5" d="M186.32,24.63v.14-.06s-.01-.05-.02-.08c0,0,.01,0,.02,0Z"/>
      <path class="cls-5" d="M148.45,238.75c1.96,4.85,1.18,10.37-2.06,14.47-4.13,5.23-8.14,10.27-11.88,14.95-3.34,4.18-6.45,8.07-9.24,11.56-4.36,5.42-7.94,9.85-10.39,12.88-.52.62-1.48.61-1.99-.02-2.9-3.57-5.79-7.15-8.67-10.73-17.09-21.2-34.24-43.35-51.02-65.18-8.72-11.34-17.11-25.83-24.37-38.22-19.57-33.38-17.29-74.79,12.67-100.7.86-.74,1.73-1.46,2.62-2.16,4.97-3.91,10.22-7.43,15.48-10.93,6.36-4.23,13.08-7.91,20.13-10.85,4.65-1.94,9.44-3.61,14.34-4.82.96-.24,8.25-2.66,9.76-1.66,2.17,1.46-1.06,4.67-2.1,5.96-9.92,12.42-18.87,26.54-20.38,42.38-1.4,14.61,3.72,29.08,10.08,42.32,11.28,23.41,26.64,44.58,39.91,66.92,6.41,10.77,12.39,22.11,17.12,33.82Z"/>
      <path class="cls-5" d="M192.32,185.77c.03,7.27-1.92,10.28-9.67,8.55-8.93-2-18.19-2.65-26.98-5.06-3.52-.97-6.97-4.56-9-7.86-2.09-3.4-2.52-7.86-3.48-11.9-1.14-4.78-1.36-6.91-3.35-10.98-1.08-2.2-7.11-6.11-8.9-6.59-12.76-3.41-35.4-24.73-35.4-51.99,0-5.71.72-11.41,2.21-16.92,1.39-5.15,3.45-10.13,6.19-14.7,2.55-4.26,5.7-8.17,9.42-11.46,3.51-3.1,7.54-5.63,11.92-7.29,2.16-.82,4.39-1.42,6.67-1.79,2.71-.44,5.44-.44,8.15-.79,6.32-.82,12.76-1.74,18.48-4.73,4.04-2.11,7.97-5.16,10.81-8.75,4.2-4.81,8.46-9.58,12.72-14.34.35-.4.74-.77,1.18-1.06,3.48-2.27,8.35-.15,8.84,4.19,0,.03.01.05.01.08v.06c.05,54.45-.02,108.9.18,163.34Z"/>
    </g>
  </g>
</svg>